<svg xmlns="http://www.w3.org/2000/svg" width="13.024" height="13.024" viewBox="0 0 13.024 13.024"><defs><style>.a{fill:#828282;}</style></defs><path class="a" d="M12.151,3.243A6.485,6.485,0,0,0,9.781.873,6.37,6.37,0,0,0,6.512,0,6.37,6.37,0,0,0,3.244.873a6.483,6.483,0,0,0-2.37,2.37A6.37,6.37,0,0,0,0,6.512,6.371,6.371,0,0,0,.873,9.781a6.485,6.485,0,0,0,2.37,2.37,6.371,6.371,0,0,0,3.269.873,6.371,6.371,0,0,0,3.269-.873,6.483,6.483,0,0,0,2.37-2.37,6.371,6.371,0,0,0,.873-3.269A6.372,6.372,0,0,0,12.151,3.243ZM7.6,10.582a.261.261,0,0,1-.271.271H5.7a.261.261,0,0,1-.271-.271V8.954A.261.261,0,0,1,5.7,8.683H7.327a.261.261,0,0,1,.271.271ZM9.663,5.571a2.242,2.242,0,0,1-.237.513,1.965,1.965,0,0,1-.377.407,3.539,3.539,0,0,1-.39.3q-.144.089-.415.242a1.428,1.428,0,0,0-.462.42.807.807,0,0,0-.182.42.261.261,0,0,1-.271.271H5.7a.261.261,0,0,1-.271-.271V7.564A1.569,1.569,0,0,1,5.872,6.5a2.9,2.9,0,0,1,.979-.734,1.716,1.716,0,0,0,.576-.382.76.76,0,0,0,.17-.517.618.618,0,0,0-.318-.5,1.242,1.242,0,0,0-.725-.22,1.234,1.234,0,0,0-.729.2,4.226,4.226,0,0,0-.729.78.25.25,0,0,1-.212.1.24.24,0,0,1-.161-.051L3.6,4.333a.242.242,0,0,1-.068-.356A3.463,3.463,0,0,1,6.682,2.171,3.3,3.3,0,0,1,9.3,3.5a2.277,2.277,0,0,1,.471,1.382A2.152,2.152,0,0,1,9.663,5.571Z" transform="translate(0 0)"/></svg>