<svg xmlns="http://www.w3.org/2000/svg" xmlns:xlink="http://www.w3.org/1999/xlink" width="84" height="84" viewBox="0 0 84 84"><defs><style>.a{fill:url(#a);}.b{fill:url(#b);}.c{fill:url(#c);}.d{fill:url(#d);}.e{fill:url(#e);}.f{fill:url(#f);}.g{fill:url(#g);}.h{fill:url(#h);}.i{fill:url(#i);}.j{fill:url(#j);}.k{fill:url(#k);}</style><linearGradient id="a" x1="0.146" y1="0.854" x2="0.854" y2="0.146" gradientUnits="objectBoundingBox"><stop offset="0" stop-color="#560dff"/><stop offset="1" stop-color="#73ecff"/></linearGradient><radialGradient id="b" cx="0.599" cy="0.473" r="0.606" gradientUnits="objectBoundingBox"><stop offset="0" stop-color="#6b23ea"/><stop offset="0.045" stop-color="#6538e6" stop-opacity="0.957"/><stop offset="0.141" stop-color="#5b5fe0" stop-opacity="0.859"/><stop offset="0.244" stop-color="#5180da" stop-opacity="0.757"/><stop offset="0.354" stop-color="#4a9cd5" stop-opacity="0.647"/><stop offset="0.472" stop-color="#44b1d2" stop-opacity="0.529"/><stop offset="0.604" stop-color="#40c0cf" stop-opacity="0.396"/><stop offset="0.76" stop-color="#3ec8cd" stop-opacity="0.239"/><stop offset="1" stop-color="#3dcbcd" stop-opacity="0"/></radialGradient><linearGradient id="c" x1="0.057" y1="0.952" x2="2.682" y2="-2.079" gradientUnits="objectBoundingBox"><stop offset="0" stop-color="#389fff"/><stop offset="0.121" stop-color="#45affa"/><stop offset="0.573" stop-color="#73e9e7"/><stop offset="0.79" stop-color="#85ffe0"/><stop offset="0.822" stop-color="#90ffe3"/><stop offset="0.938" stop-color="#b4ffec"/><stop offset="1" stop-color="#c2fff0"/></linearGradient><radialGradient id="d" cx="0.781" cy="1.645" r="1.797" gradientTransform="translate(0.067) scale(0.866 1)" gradientUnits="objectBoundingBox"><stop offset="0" stop-color="#3dcbcd" stop-opacity="0"/><stop offset="0.405" stop-color="#3ec9cd" stop-opacity="0.404"/><stop offset="0.551" stop-color="#3fc2ce" stop-opacity="0.553"/><stop offset="0.655" stop-color="#43b7d1" stop-opacity="0.655"/><stop offset="0.739" stop-color="#47a6d3" stop-opacity="0.737"/><stop offset="0.812" stop-color="#4d90d7" stop-opacity="0.812"/><stop offset="0.875" stop-color="#5574dc" stop-opacity="0.875"/><stop offset="0.933" stop-color="#5e54e2" stop-opacity="0.933"/><stop offset="0.984" stop-color="#6830e8" stop-opacity="0.984"/><stop offset="1" stop-color="#6b23ea"/></radialGradient><linearGradient id="e" x1="-0.31" y1="1.28" x2="1.224" y2="-0.066" gradientUnits="objectBoundingBox"><stop offset="0" stop-color="#389fff"/><stop offset="0.121" stop-color="#45affa"/><stop offset="0.573" stop-color="#73e9e7"/><stop offset="0.79" stop-color="#85ffe0"/><stop offset="0.88" stop-color="#9dffe6"/><stop offset="0.997" stop-color="#c2fff0"/></linearGradient><linearGradient id="f" x1="-2.146" y1="3.126" x2="1.625" y2="-0.616" xlink:href="#a"/><linearGradient id="g" x1="-1.226" y1="2.396" x2="1.367" y2="-0.565" xlink:href="#a"/><linearGradient id="h" x1="-0.095" y1="1.308" x2="2.324" y2="-2.995" xlink:href="#c"/><radialGradient id="i" cx="0.465" cy="2.672" r="3.109" gradientTransform="translate(0.219) scale(0.562 1)" xlink:href="#d"/><linearGradient id="j" x1="-0.026" y1="1.817" x2="1.966" y2="-1.868" gradientUnits="objectBoundingBox"><stop offset="0" stop-color="#389fff"/><stop offset="0.121" stop-color="#45affa"/><stop offset="0.573" stop-color="#73e9e7"/><stop offset="0.79" stop-color="#85ffe0"/><stop offset="0.881" stop-color="#9dffe6"/><stop offset="1" stop-color="#c2fff0"/></linearGradient><linearGradient id="k" x1="-0.652" y1="2.85" x2="0.986" y2="-0.316" xlink:href="#j"/></defs><circle class="a" cx="42" cy="42" r="42"/><circle class="b" cx="42" cy="42" r="42"/><path class="c" d="M175.717,335.675a7.246,7.246,0,0,0,10.456.134c4.221-4.311,8.531-8.673,12.87-13.028q-5.325-2.474-10.693-5.01C184.059,323.784,179.811,329.78,175.717,335.675Z" transform="translate(-146.888 -265.637)"/><path class="d" d="M175.717,335.675a7.246,7.246,0,0,0,10.456.134c4.221-4.311,8.531-8.673,12.87-13.028q-5.325-2.474-10.693-5.01C184.059,323.784,179.811,329.78,175.717,335.675Z" transform="translate(-146.888 -265.637)"/><path class="e" d="M158.313,72.333q-1.618-.057-3.236-.1a12.083,12.083,0,0,0-12.232,12.377q.006,1.446.011,2.893c-4.45,9.265-9.03,18.586-13.463,27.823-4.679,4.688-9.3,9.32-13.776,13.815a1.25,1.25,0,0,0,.236,1.888,7.165,7.165,0,0,0,9.3-.657c3.67-3.727,7.421-7.52,11.213-11.339a5,5,0,0,1,3.543-1.477q4.476-.006,8.953-.045c10.512-.138,19.327-8.786,19.271-19.075a18.21,18.21,0,0,0-1.261-6.509c-2.414-6.187-4.893-12.439-7.372-18.729a1.353,1.353,0,0,0-1.191-.861Z" transform="translate(-96.372 -60.374)"/><path class="f" d="M333.5,105a2.407,2.407,0,0,1-2.466,2.477,2.614,2.614,0,0,1-2.55-2.57,2.414,2.414,0,0,1,2.461-2.485A2.65,2.65,0,0,1,333.5,105Z" transform="translate(-274.588 -85.614)"/><path class="g" d="M331.752,109.434a2.624,2.624,0,0,1-2.551-2.574,2.573,2.573,0,0,1,.016-.313,2.461,2.461,0,0,0-.738,1.808,2.614,2.614,0,0,0,2.55,2.57,2.4,2.4,0,0,0,2.451-2.165A2.4,2.4,0,0,1,331.752,109.434Z" transform="translate(-274.588 -89.067)"/><path class="h" d="M141.833,281.9q-2.71,4.318-5.37,8.588a7.5,7.5,0,0,0,10.632.109q4.305-4.314,8.663-8.674Q148.8,281.926,141.833,281.9Z" transform="translate(-114.075 -235.653)"/><path class="i" d="M141.833,281.9q-2.71,4.318-5.37,8.588a7.5,7.5,0,0,0,10.632.109q4.305-4.314,8.663-8.674Q148.8,281.926,141.833,281.9Z" transform="translate(-114.075 -235.653)"/><path class="j" d="M155.188,163.814a11.194,11.194,0,0,0-8.343,3.319c-4.913,4.927-9.86,9.856-14.757,14.7q13.895.046,27.79.029s5.128-5.763,5.615-10.452a11.508,11.508,0,0,0-10.3-7.593Z" transform="translate(-110.417 -136.933)"/><path class="k" d="M118.02,210.131a11.3,11.3,0,0,1-10.658,7.5H91.746a10.158,10.158,0,0,0-7.13,2.922q-4.522,4.471-8.968,8.823a1.21,1.21,0,0,0,.211,1.869,7.485,7.485,0,0,0,9.475-.752q1.951-1.937,3.92-3.895a5,5,0,0,1,3.551-1.446q7.277.037,14.554.03a11.342,11.342,0,0,0,11.324-11.478A11.074,11.074,0,0,0,118.02,210.131Z" transform="translate(-62.945 -175.656)"/></svg>