<svg xmlns="http://www.w3.org/2000/svg" width="12.591" height="12.591" viewBox="0 0 12.591 12.591"><defs><style>.a{fill:#547dee;}</style></defs><path class="a" d="M6.3,0a6.3,6.3,0,1,0,6.3,6.3A6.3,6.3,0,0,0,6.3,0Zm0,10.859A4.563,4.563,0,1,1,10.858,6.3,4.568,4.568,0,0,1,6.3,10.859ZM8.583,5.477a2.046,2.046,0,0,0-2.328-2.06H4.128V9.175h1.22V7.57h.908c.053,0,.11,0,.168,0L7.6,9.175H9.109L7.678,7.215A1.959,1.959,0,0,0,8.583,5.477Zm-2.328.874H5.348V4.636h.908c1.108,0,1.108.633,1.108.841S7.364,6.351,6.256,6.351Z"/></svg>